<svg viewBox="0 0 49 35" fill="none" xmlns="http://www.w3.org/2000/svg" id="logo">
  <path d="M15.9177 0H23.346V35H15.9177V0Z" fill="#57BFC1" fill-opacity="0.3"/>
  <path d="M15.9177 0H23.346L7.42826 35H0L15.9177 0Z" fill="#57BFC1"/>
  <path d="M31.8355 0H39.2638V35H31.8355V0Z" fill="#57BFC1" fill-opacity="0.3"/>
  <path d="M31.8481 0H39.2763L23.3586 35H15.9304L31.8481 0Z" fill="#57BFC1"/>
  <path d="M41.5717 13.5919H49L39.2638 35H31.8355L41.5717 13.5919Z" fill="#57BFC1"/>
<symbol viewBox="0 0 22 22" xmlns="http://www.w3.org/2000/svg" id="basket">
  <path d="M18.5261 13.1983C18.7779 13.1984 19.0229 13.1205 19.2239 12.9764C19.4249 12.8323 19.5709 12.6299 19.6399 12.3998L21.9557 4.70081C22.0048 4.53713 22.0132 4.36486 21.9803 4.19756C21.9474 4.03026 21.8741 3.87249 21.7662 3.73667C21.6582 3.60085 21.5185 3.49068 21.3581 3.41484C21.1977 3.33899 21.021 3.29954 20.8418 3.29959H5.52308L4.83414 0.819397C4.76894 0.584554 4.62374 0.376814 4.4212 0.228588C4.21866 0.0803615 3.97016 -1.43146e-05 3.71447 1.9122e-09H1.15788C0.85079 1.9122e-09 0.556279 0.115878 0.339135 0.322142C0.12199 0.528406 0 0.808161 0 1.09986C0 1.39156 0.12199 1.67132 0.339135 1.87758C0.556279 2.08385 0.85079 2.19972 1.15788 2.19972H2.82291L3.51763 4.67991V4.69091V4.70081L5.83339 12.3998L6.69717 15.684C6.12533 15.9249 5.63257 16.3079 5.27092 16.7927C4.90927 17.2775 4.69215 17.8461 4.64248 18.4384C4.59281 19.0307 4.71245 19.6248 4.98875 20.1579C5.26505 20.6909 5.68776 21.1433 6.21225 21.4671C6.73674 21.7908 7.34355 21.9741 7.96859 21.9974C8.59363 22.0208 9.21372 21.8834 9.76337 21.5998C10.313 21.3161 10.7718 20.8968 11.0914 20.3859C11.4109 19.8751 11.5793 19.2918 11.5788 18.6977C11.5749 18.3221 11.5029 17.95 11.3657 17.5978H14.1076C13.9705 17.95 13.8984 18.3221 13.8945 18.6977C13.8945 19.3503 14.0983 19.9882 14.48 20.5308C14.8616 21.0734 15.4041 21.4963 16.0389 21.7461C16.6736 21.9958 17.372 22.0612 18.0458 21.9338C18.7197 21.8065 19.3386 21.4923 19.8244 21.0308C20.3102 20.5694 20.641 19.9814 20.7751 19.3414C20.9091 18.7013 20.8403 18.0379 20.5774 17.435C20.3145 16.832 19.8693 16.3167 19.298 15.9542C18.7268 15.5916 18.0552 15.3981 17.3682 15.3981H9.00829L8.42935 13.1983H18.5261ZM19.3065 5.49931L17.653 10.9986H7.82031L6.16686 5.49931H19.3065ZM9.26303 18.6977C9.26303 18.9152 9.19512 19.1278 9.06789 19.3087C8.94066 19.4896 8.75982 19.6306 8.54825 19.7138C8.33667 19.797 8.10386 19.8188 7.87926 19.7764C7.65465 19.7339 7.44834 19.6292 7.2864 19.4754C7.12447 19.3216 7.01419 19.1256 6.96952 18.9122C6.92484 18.6989 6.94777 18.4777 7.03541 18.2768C7.12304 18.0758 7.27145 17.904 7.46186 17.7832C7.65228 17.6623 7.87614 17.5978 8.10515 17.5978C8.41224 17.5978 8.70675 17.7137 8.92389 17.9199C9.14104 18.1262 9.26303 18.406 9.26303 18.6977ZM17.3682 19.7975C17.1392 19.7975 16.9153 19.733 16.7249 19.6122C16.5345 19.4913 16.3861 19.3195 16.2984 19.1186C16.2108 18.9176 16.1879 18.6964 16.2325 18.4831C16.2772 18.2697 16.3875 18.0738 16.5494 17.9199C16.7114 17.7661 16.9177 17.6614 17.1423 17.6189C17.3669 17.5765 17.5997 17.5983 17.8113 17.6815C18.0228 17.7648 18.2037 17.9057 18.3309 18.0866C18.4581 18.2675 18.5261 18.4801 18.5261 18.6977C18.5261 18.9894 18.4041 19.2691 18.1869 19.4754C17.9698 19.6816 17.6753 19.7975 17.3682 19.7975Z"/>
</symbol>
<symbol viewBox="0 0 29 21" fill="none" xmlns="http://www.w3.org/2000/svg" id="logoButton">
  <path d="M9.42065 0.142853H13.817V20.8571H9.42065V0.142853Z" fill="white" fill-opacity="0.3"/>
  <path d="M9.42068 0.142853H13.817L4.39632 20.8571H0L9.42068 0.142853Z" fill="white"/>
  <path d="M18.8414 0.142853H23.2378V20.8571H18.8414V0.142853Z" fill="white" fill-opacity="0.3"/>
  <path d="M18.8488 0.142853H23.2452L13.8245 20.8571H9.42816L18.8488 0.142853Z" fill="white"/>
  <path d="M24.6037 8.18692H29L23.2377 20.857H18.8414L24.6037 8.18692Z" fill="white"/>
</symbol>
<symbol viewBox="0 0 20 20" fill="none" xmlns="http://www.w3.org/2000/svg" id="vector">
  <path d="M12.8571 17.1429L5.71426 10L12.8571 2.85714" stroke="#111C38" stroke-width="2" stroke-linecap="round"/>
</symbol>
<symbol viewBox="0 0 20 20" fill="none" xmlns="http://www.w3.org/2000/svg" id="vector1">
  <path d="M7.14288 2.85715L14.2857 10L7.14288 17.1429" stroke="#111C38" stroke-width="2" stroke-linecap="round"/>
</symbol>
<symbol viewBox="0 0 20 20" fill="none" xmlns="http://www.w3.org/2000/svg" id="left">
  <g opacity="0.7">
  <path d="M13.3162 19C12.8751 18.9999 12.4521 18.8104 12.1403 18.4732L5.487 11.2821C5.17517 10.9449 5 10.4878 5 10.011C5 9.53434 5.17517 9.07714 5.487 8.74001L12.1403 1.54884C12.2937 1.37714 12.4772 1.24018 12.6802 1.14596C12.8831 1.05174 13.1014 1.00214 13.3222 1.00007C13.5431 0.997994 13.7621 1.04348 13.9665 1.13387C14.1709 1.22427 14.3567 1.35776 14.5128 1.52656C14.669 1.69536 14.7925 1.89609 14.8761 2.11703C14.9598 2.33797 15.0019 2.5747 14.9999 2.81341C14.998 3.05212 14.9521 3.28803 14.865 3.50737C14.7778 3.7267 14.6511 3.92508 14.4922 4.09092L9.0149 10.011L14.4922 15.9312C14.7248 16.1826 14.8831 16.5029 14.9473 16.8516C15.0114 17.2003 14.9785 17.5617 14.8526 17.8901C14.7267 18.2186 14.5136 18.4993 14.2401 18.6969C13.9667 18.8944 13.6452 18.9999 13.3162 19Z" fill="#1F2A37"/>
  </g>
</symbol>
<symbol viewBox="0 0 20 20" fill="none" xmlns="http://www.w3.org/2000/svg" id="right">
  <path d="M6.68376 19C6.35484 18.9999 6.03332 18.8944 5.75986 18.6969C5.48639 18.4993 5.27325 18.2186 5.14739 17.8901C5.02152 17.5617 4.98859 17.2003 5.05274 16.8516C5.11689 16.5029 5.27525 16.1826 5.50779 15.9312L10.9851 10.011L5.50779 4.09092C5.34893 3.92508 5.22221 3.7267 5.13504 3.50737C5.04787 3.28803 5.00198 3.05212 5.00006 2.81341C4.99814 2.5747 5.04023 2.33797 5.12386 2.11703C5.2075 1.89609 5.331 1.69536 5.48718 1.52656C5.64335 1.35776 5.82906 1.22427 6.03348 1.13387C6.23789 1.04348 6.45692 0.997994 6.67777 1.00007C6.89863 1.00214 7.11689 1.05174 7.31982 1.14596C7.52275 1.24018 7.70629 1.37714 7.85973 1.54884L14.513 8.74001C14.8248 9.07714 15 9.53434 15 10.011C15 10.4878 14.8248 10.9449 14.513 11.2821L7.85973 18.4732C7.54787 18.8104 7.12486 18.9999 6.68376 19Z" fill="#1F2A37"/>
</symbol>
<symbol viewBox="0 0 17 16" fill="none" xmlns="http://www.w3.org/2000/svg" id="cost-arrows">
  <path d="M1.00002 1L8 7.99997L1.00002 15" stroke="white" stroke-opacity="0.5" stroke-width="1.5"/>
  <path d="M8.00002 1L15 7.99997L8.00002 15" stroke="white" stroke-width="1.5"/>
</symbol>
<symbol viewBox="0 0 42 30" fill="none" xmlns="http://www.w3.org/2000/svg" id="footer-logo-blue">
  <path d="M13.6437 0H20.0108V30H13.6437V0Z" fill="#57BFC1" fill-opacity="0.3"/>
  <path d="M13.6438 0H20.0108L6.36708 30H0L13.6438 0Z" fill="#57BFC1"/>
  <path d="M27.2876 0H33.6547V30H27.2876V0Z" fill="#57BFC1" fill-opacity="0.3"/>
  <path d="M27.2984 0H33.6654L20.0217 30H13.6546L27.2984 0Z" fill="#57BFC1"/>
  <path d="M35.6329 11.6501H42L33.6547 30H27.2876L35.6329 11.6501Z" fill="#57BFC1"/>
</symbol>
<symbol viewBox="0 0 20 20" fill="none" xmlns="http://www.w3.org/2000/svg" id="order-now">
  <path d="M10.2568 0.189209C4.97013 0.189209 0.662155 4.49718 0.662155 9.7838C0.662155 15.0704 4.97013 19.3784 10.2568 19.3784C15.5434 19.3784 19.8513 15.0704 19.8513 9.7838C19.8513 4.49718 15.5434 0.189209 10.2568 0.189209ZM12.9336 10.2923L9.54675 13.6792C9.40283 13.8231 9.22053 13.8903 9.03824 13.8903C8.85594 13.8903 8.67364 13.8231 8.52972 13.6792C8.25148 13.401 8.25148 12.9404 8.52972 12.6622L11.4081 9.7838L8.52972 6.90543C8.25148 6.62718 8.25148 6.16664 8.52972 5.8884C8.80797 5.61016 9.26851 5.61016 9.54675 5.8884L12.9336 9.27529C13.2215 9.55353 13.2215 10.0141 12.9336 10.2923Z" fill="white"/>
</symbol>
<symbol viewBox="0 0 18 10" fill="none" xmlns="http://www.w3.org/2000/svg" id="arrow-que">
  <path d="M9.02212 10C8.54477 9.99991 8.08701 9.82461 7.74952 9.51266L0.549519 2.85962C0.377601 2.70619 0.240473 2.52266 0.146136 2.31974C0.0518002 2.11681 0.00214483 1.89856 6.79627e-05 1.67771C-0.00200891 1.45687 0.0435338 1.23785 0.134039 1.03344C0.224545 0.829032 0.358201 0.643327 0.527207 0.487159C0.696214 0.330991 0.897188 0.207489 1.1184 0.123858C1.33961 0.0402282 1.57664 -0.0018563 1.81564 6.27976e-05C2.05464 0.00198189 2.29084 0.047865 2.51045 0.135035C2.73005 0.222205 2.92867 0.348917 3.09472 0.507775L9.02212 5.98489L14.9495 0.507775C15.289 0.204799 15.7437 0.0371514 16.2156 0.040941C16.6876 0.0447306 17.1391 0.219654 17.4728 0.528035C17.8065 0.836417 17.9958 1.25358 17.9999 1.68969C18.004 2.12579 17.8226 2.54593 17.4947 2.85962L10.2947 9.51266C9.95723 9.82461 9.49947 9.99991 9.02212 10Z" fill="#1F2A37"/>
</symbol>



</svg>
